
 <svg style="diplay:none;" xmlns="http://www.w3.org/2000/svg">
        

          <!-- new-->
          <symbol id="instagram-icon" viewBox="0 0 20 20">
            <path
              d="M10 1.801c2.672 0 2.988.012 4.039.059.977.043 1.504.207 1.855.344.465.18.801.398 1.148.746.352.352.566.684.75 1.148.137.352.301.883.344 1.855.047 1.055.059 1.371.059 4.039s-.012 2.988-.059 4.039c-.043.977-.207 1.504-.344 1.855-.18.465-.398.801-.746 1.148a3.142 3.142 0 0 1-1.148.75c-.352.137-.883.301-1.855.344-1.055.047-1.371.059-4.039.059s-2.988-.012-4.039-.059c-.977-.043-1.504-.207-1.855-.344a3.084 3.084 0 0 1-1.148-.746 3.142 3.142 0 0 1-.75-1.148c-.137-.352-.301-.883-.344-1.855-.047-1.055-.059-1.371-.059-4.039s.012-2.988.059-4.039c.043-.977.207-1.504.344-1.855.18-.465.398-.801.746-1.148a3.142 3.142 0 0 1 1.148-.75c.352-.137.883-.301 1.855-.344 1.051-.047 1.367-.059 4.039-.059zM10 0C7.285 0 6.945.012 5.879.059 4.816.106 4.086.278 3.453.524A4.884 4.884 0 0 0 1.68 1.68 4.894 4.894 0 0 0 .524 3.45C.278 4.087.106 4.813.059 5.876.012 6.946 0 7.286 0 10.001s.012 3.055.059 4.121c.047 1.063.219 1.793.465 2.426.258.66.598 1.219 1.156 1.773a4.882 4.882 0 0 0 1.77 1.152c.637.246 1.363.418 2.426.465 1.066.047 1.406.059 4.121.059s3.055-.012 4.121-.059c1.062-.047 1.793-.219 2.426-.465.656-.254 1.215-.598 1.77-1.152s.898-1.113 1.152-1.77c.246-.637.418-1.363.465-2.426.047-1.066.059-1.406.059-4.121s-.012-3.055-.059-4.121c-.047-1.063-.219-1.793-.465-2.426a4.673 4.673 0 0 0-1.145-1.777 4.882 4.882 0 0 0-1.77-1.152C15.914.282 15.188.11 14.125.063 13.055.012 12.715 0 10 0z" />
            <path
              d="M10 4.863c-2.836 0-5.137 2.301-5.137 5.137S7.164 15.137 10 15.137s5.137-2.301 5.137-5.137A5.138 5.138 0 0 0 10 4.863zm0 8.469a3.332 3.332 0 1 1 0-6.665 3.332 3.332 0 0 1 0 6.665zm6.539-8.672a1.2 1.2 0 1 1-2.398 0 1.2 1.2 0 0 1 2.398 0z" />
            </symbol>
            <symbol id="twitter-icon" viewBox="0 0 20 20">
              <path
                d="M20 4.422a8.103 8.103 0 0 1-2.355.645 4.129 4.129 0 0 0 1.805-2.27 8.258 8.258 0 0 1-2.605.996A4.102 4.102 0 0 0 13.849 2.5a4.101 4.101 0 0 0-4.102 4.102c0 .32.035.633.105.934a11.647 11.647 0 0 1-8.457-4.289A4.098 4.098 0 0 0 .84 5.309c0 1.422.723 2.68 1.824 3.414a4.105 4.105 0 0 1-1.859-.512v.051a4.103 4.103 0 0 0 3.293 4.023 4.101 4.101 0 0 1-1.855.071 4.117 4.117 0 0 0 3.832 2.852 8.227 8.227 0 0 1-6.078 1.699 11.606 11.606 0 0 0 6.293 1.844c7.547 0 11.676-6.254 11.676-11.676 0-.18-.004-.355-.012-.531a8.26 8.26 0 0 0 2.047-2.121z" />
</symbol>
              <symbol id="facebook-icon" viewBox="0 0 20 20">
                <path
                  d="M11.875 3.75H15V0h-3.125A4.38 4.38 0 0 0 7.5 4.375V6.25H5V10h2.5v10h3.75V10h3.125L15 6.25h-3.75V4.375c0-.339.286-.625.625-.625z" />
</symbol>
                <symbol id="linkin-icon" viewBox="0 0 20 20">
                  <path d="M7.5 7.5h3.459v1.773h.049c.481-.863 1.659-1.773 3.415-1.773 3.651 0 4.327 2.273 4.327 5.229v6.021h-3.606v-5.337c0-1.273-.026-2.911-1.876-2.911-1.878 0-2.164 1.386-2.164 2.818v5.43H7.5V7.5zM1.25 7.5H5v11.25H1.25V7.5zM5 4.375a1.874 1.874 0 1 1-3.749.001A1.874 1.874 0 0 1 5 4.375z"/>
</symbol>
        
      </svg>
      